<svg xmlns="http://www.w3.org/2000/svg" xmlns:xlink="http://www.w3.org/1999/xlink" width="1080" zoomAndPan="magnify" viewBox="0 0 810 809.999993" height="1080" preserveAspectRatio="xMidYMid meet" version="1.0"><defs><g/><clipPath id="e0982b1d23"><path d="M 171.671875 36.253906 L 363.1875 36.253906 L 363.1875 227.769531 L 171.671875 227.769531 Z M 171.671875 36.253906 " clip-rule="nonzero"/></clipPath><clipPath id="9cd4db5594"><path d="M 267.429688 36.253906 C 214.542969 36.253906 171.671875 79.125 171.671875 132.011719 C 171.671875 184.894531 214.542969 227.769531 267.429688 227.769531 C 320.3125 227.769531 363.1875 184.894531 363.1875 132.011719 C 363.1875 79.125 320.3125 36.253906 267.429688 36.253906 Z M 267.429688 36.253906 " clip-rule="nonzero"/></clipPath></defs><rect x="-81" width="972" fill="#ffffff" y="-80.999999" height="971.999992" fill-opacity="1"/><rect x="-81" width="972" fill="#ffffff" y="-80.999999" height="971.999992" fill-opacity="1"/><g fill="#033b86" fill-opacity="1"><g transform="translate(151.429508, 648.277336)"><g><path d="M 152.265625 -314.34375 L 152.265625 0 L 36.84375 0 L 36.84375 -506.515625 L 152.265625 -506.515625 L 353.640625 -192.171875 L 354.859375 -192.171875 L 354.859375 -506.515625 L 470.28125 -506.515625 L 470.28125 0 L 354.859375 0 L 153.484375 -314.34375 Z M 152.265625 -314.34375 "/></g></g></g><g clip-path="url(#e0982b1d23)"><g clip-path="url(#9cd4db5594)"><path fill="#ffffff" d="M 171.671875 36.253906 L 363.1875 36.253906 L 363.1875 227.769531 L 171.671875 227.769531 Z M 171.671875 36.253906 " fill-opacity="1" fill-rule="nonzero"/></g></g></svg>