<svg xmlns="http://www.w3.org/2000/svg" xmlns:xlink="http://www.w3.org/1999/xlink" width="1080" zoomAndPan="magnify" viewBox="0 0 810 809.999993" height="1080" preserveAspectRatio="xMidYMid meet" version="1.0"><defs><g/><clipPath id="e56a7c9f34"><path d="M 53.132812 268.691406 L 108.542969 268.691406 L 108.542969 326 L 53.132812 326 Z M 53.132812 268.691406 " clip-rule="nonzero"/></clipPath><clipPath id="1674007e9f"><path d="M 80.835938 268.691406 C 65.535156 268.691406 53.132812 281.515625 53.132812 297.332031 C 53.132812 313.148438 65.535156 325.972656 80.835938 325.972656 C 96.136719 325.972656 108.542969 313.148438 108.542969 297.332031 C 108.542969 281.515625 96.136719 268.691406 80.835938 268.691406 Z M 80.835938 268.691406 " clip-rule="nonzero"/></clipPath></defs><rect x="-81" width="972" fill="#ffffff" y="-80.999999" height="971.999992" fill-opacity="1"/><rect x="-81" width="972" fill="#ffffff" y="-80.999999" height="971.999992" fill-opacity="1"/><g fill="#033b86" fill-opacity="1"><g transform="translate(189.750589, 444.214428)"><g><path d="M 93.328125 -37.390625 L 33.359375 -37.390625 C 33.359375 -31.585938 35.238281 -27.289062 39 -24.5 C 42.769531 -21.707031 46.851562 -20.3125 51.25 -20.3125 C 55.875 -20.3125 59.53125 -20.925781 62.21875 -22.15625 C 64.90625 -23.394531 67.96875 -25.84375 71.40625 -29.5 L 92.03125 -19.1875 C 83.4375 -4.78125 69.144531 2.421875 49.15625 2.421875 C 36.695312 2.421875 26.003906 -1.847656 17.078125 -10.390625 C 8.160156 -18.941406 3.703125 -29.234375 3.703125 -41.265625 C 3.703125 -53.296875 8.160156 -63.609375 17.078125 -72.203125 C 26.003906 -80.804688 36.695312 -85.109375 49.15625 -85.109375 C 62.269531 -85.109375 72.9375 -81.316406 81.15625 -73.734375 C 89.375 -66.160156 93.484375 -55.335938 93.484375 -41.265625 C 93.484375 -39.328125 93.429688 -38.035156 93.328125 -37.390625 Z M 34.171875 -53.1875 L 65.609375 -53.1875 C 64.960938 -57.488281 63.269531 -60.796875 60.53125 -63.109375 C 57.789062 -65.421875 54.269531 -66.578125 49.96875 -66.578125 C 45.238281 -66.578125 41.476562 -65.335938 38.6875 -62.859375 C 35.894531 -60.390625 34.390625 -57.164062 34.171875 -53.1875 Z M 34.171875 -53.1875 "/></g></g></g><g fill="#033b86" fill-opacity="1"><g transform="translate(286.947256, 444.214428)"><g><path d="M 14.5 -82.6875 L 14.5 -113.46875 L 43.03125 -113.46875 L 43.03125 -82.6875 L 60.4375 -82.6875 L 60.4375 -60.921875 L 43.03125 -60.921875 L 43.03125 -34.65625 C 43.03125 -27.03125 45.179688 -23.21875 49.484375 -23.21875 C 50.554688 -23.21875 51.679688 -23.429688 52.859375 -23.859375 C 54.046875 -24.285156 54.960938 -24.710938 55.609375 -25.140625 L 56.578125 -25.796875 L 63.671875 -2.734375 C 57.546875 0.703125 50.5625 2.421875 42.71875 2.421875 C 37.34375 2.421875 32.71875 1.484375 28.84375 -0.390625 C 24.976562 -2.273438 22.050781 -4.800781 20.0625 -7.96875 C 18.070312 -11.144531 16.644531 -14.476562 15.78125 -17.96875 C 14.925781 -21.46875 14.5 -25.203125 14.5 -29.171875 L 14.5 -60.921875 L 2.578125 -60.921875 L 2.578125 -82.6875 Z M 14.5 -82.6875 "/></g></g></g><g fill="#033b86" fill-opacity="1"><g transform="translate(350.616708, 444.214428)"><g><path d="M 53.671875 -61.734375 C 48.296875 -61.734375 43.675781 -59.742188 39.8125 -55.765625 C 35.945312 -51.796875 34.015625 -47.015625 34.015625 -41.421875 C 34.015625 -35.722656 35.945312 -30.882812 39.8125 -26.90625 C 43.675781 -22.9375 48.296875 -20.953125 53.671875 -20.953125 C 56.253906 -20.953125 58.695312 -21.273438 61 -21.921875 C 63.3125 -22.566406 65.007812 -23.210938 66.09375 -23.859375 L 67.53125 -24.828125 L 77.203125 -5 C 76.453125 -4.457031 75.40625 -3.78125 74.0625 -2.96875 C 72.71875 -2.164062 69.65625 -1.066406 64.875 0.328125 C 60.09375 1.722656 54.960938 2.421875 49.484375 2.421875 C 37.335938 2.421875 26.671875 -1.847656 17.484375 -10.390625 C 8.296875 -18.941406 3.703125 -29.179688 3.703125 -41.109375 C 3.703125 -53.140625 8.296875 -63.476562 17.484375 -72.125 C 26.671875 -80.78125 37.335938 -85.109375 49.484375 -85.109375 C 54.960938 -85.109375 60.007812 -84.460938 64.625 -83.171875 C 69.25 -81.878906 72.53125 -80.585938 74.46875 -79.296875 L 77.203125 -77.375 L 67.53125 -57.859375 C 63.988281 -60.441406 59.367188 -61.734375 53.671875 -61.734375 Z M 53.671875 -61.734375 "/></g></g></g><g fill="#033b86" fill-opacity="1"><g transform="translate(429.760274, 444.214428)"><g><path d="M 9.671875 0 L 9.671875 -82.6875 L 38.203125 -82.6875 L 38.203125 -70.765625 L 38.53125 -70.765625 C 38.738281 -71.191406 39.082031 -71.726562 39.5625 -72.375 C 40.050781 -73.019531 41.097656 -74.144531 42.703125 -75.75 C 44.316406 -77.363281 46.035156 -78.816406 47.859375 -80.109375 C 49.691406 -81.398438 52.054688 -82.554688 54.953125 -83.578125 C 57.859375 -84.597656 60.816406 -85.109375 63.828125 -85.109375 C 66.941406 -85.109375 70.003906 -84.675781 73.015625 -83.8125 C 76.023438 -82.957031 78.226562 -82.097656 79.625 -81.234375 L 81.890625 -79.953125 L 69.953125 -55.765625 C 66.410156 -58.773438 61.46875 -60.28125 55.125 -60.28125 C 51.6875 -60.28125 48.726562 -59.523438 46.25 -58.015625 C 43.78125 -56.515625 42.035156 -54.691406 41.015625 -52.546875 C 39.992188 -50.398438 39.269531 -48.570312 38.84375 -47.0625 C 38.414062 -45.5625 38.203125 -44.378906 38.203125 -43.515625 L 38.203125 0 Z M 9.671875 0 "/></g></g></g><g fill="#033b86" fill-opacity="1"><g transform="translate(510.03216, 444.214428)"><g><path d="M 93.328125 -37.390625 L 33.359375 -37.390625 C 33.359375 -31.585938 35.238281 -27.289062 39 -24.5 C 42.769531 -21.707031 46.851562 -20.3125 51.25 -20.3125 C 55.875 -20.3125 59.53125 -20.925781 62.21875 -22.15625 C 64.90625 -23.394531 67.96875 -25.84375 71.40625 -29.5 L 92.03125 -19.1875 C 83.4375 -4.78125 69.144531 2.421875 49.15625 2.421875 C 36.695312 2.421875 26.003906 -1.847656 17.078125 -10.390625 C 8.160156 -18.941406 3.703125 -29.234375 3.703125 -41.265625 C 3.703125 -53.296875 8.160156 -63.609375 17.078125 -72.203125 C 26.003906 -80.804688 36.695312 -85.109375 49.15625 -85.109375 C 62.269531 -85.109375 72.9375 -81.316406 81.15625 -73.734375 C 89.375 -66.160156 93.484375 -55.335938 93.484375 -41.265625 C 93.484375 -39.328125 93.429688 -38.035156 93.328125 -37.390625 Z M 34.171875 -53.1875 L 65.609375 -53.1875 C 64.960938 -57.488281 63.269531 -60.796875 60.53125 -63.109375 C 57.789062 -65.421875 54.269531 -66.578125 49.96875 -66.578125 C 45.238281 -66.578125 41.476562 -65.335938 38.6875 -62.859375 C 35.894531 -60.390625 34.390625 -57.164062 34.171875 -53.1875 Z M 34.171875 -53.1875 "/></g></g></g><g fill="#033b86" fill-opacity="1"><g transform="translate(607.228833, 444.214428)"><g><path d="M 45.609375 -85.109375 C 50.335938 -85.109375 55.015625 -84.570312 59.640625 -83.5 C 64.265625 -82.425781 67.703125 -81.347656 69.953125 -80.265625 L 73.34375 -78.65625 L 63.984375 -59.96875 C 57.535156 -63.40625 51.410156 -65.125 45.609375 -65.125 C 42.390625 -65.125 40.109375 -64.773438 38.765625 -64.078125 C 37.421875 -63.378906 36.75 -62.0625 36.75 -60.125 C 36.75 -59.695312 36.800781 -59.265625 36.90625 -58.828125 C 37.019531 -58.398438 37.238281 -58 37.5625 -57.625 C 37.882812 -57.25 38.175781 -56.925781 38.4375 -56.65625 C 38.707031 -56.382812 39.164062 -56.085938 39.8125 -55.765625 C 40.457031 -55.441406 40.96875 -55.195312 41.34375 -55.03125 C 41.71875 -54.875 42.332031 -54.632812 43.1875 -54.3125 C 44.050781 -54 44.695312 -53.757812 45.125 -53.59375 C 45.5625 -53.4375 46.289062 -53.195312 47.3125 -52.875 C 48.332031 -52.550781 49.109375 -52.332031 49.640625 -52.21875 C 52.972656 -51.257812 55.875 -50.1875 58.34375 -49 C 60.820312 -47.820312 63.429688 -46.210938 66.171875 -44.171875 C 68.910156 -42.128906 71.03125 -39.546875 72.53125 -36.421875 C 74.039062 -33.304688 74.796875 -29.765625 74.796875 -25.796875 C 74.796875 -6.984375 61.738281 2.421875 35.625 2.421875 C 29.707031 2.421875 24.085938 1.507812 18.765625 -0.3125 C 13.453125 -2.144531 9.613281 -3.972656 7.25 -5.796875 L 3.703125 -8.703125 L 15.3125 -28.203125 C 16.175781 -27.453125 17.304688 -26.566406 18.703125 -25.546875 C 20.097656 -24.523438 22.617188 -23.128906 26.265625 -21.359375 C 29.921875 -19.585938 33.09375 -18.703125 35.78125 -18.703125 C 41.695312 -18.703125 44.65625 -20.6875 44.65625 -24.65625 C 44.65625 -26.488281 43.898438 -27.914062 42.390625 -28.9375 C 40.890625 -29.957031 38.335938 -31.109375 34.734375 -32.390625 C 31.140625 -33.679688 28.320312 -34.863281 26.28125 -35.9375 C 21.113281 -38.625 17.023438 -41.660156 14.015625 -45.046875 C 11.015625 -48.429688 9.515625 -52.921875 9.515625 -58.515625 C 9.515625 -66.890625 12.765625 -73.414062 19.265625 -78.09375 C 25.765625 -82.769531 34.546875 -85.109375 45.609375 -85.109375 Z M 45.609375 -85.109375 "/></g></g></g><g fill="#033b86" fill-opacity="1"><g transform="translate(686.533573, 444.214428)"><g><path d="M 14.5 -82.6875 L 14.5 -113.46875 L 43.03125 -113.46875 L 43.03125 -82.6875 L 60.4375 -82.6875 L 60.4375 -60.921875 L 43.03125 -60.921875 L 43.03125 -34.65625 C 43.03125 -27.03125 45.179688 -23.21875 49.484375 -23.21875 C 50.554688 -23.21875 51.679688 -23.429688 52.859375 -23.859375 C 54.046875 -24.285156 54.960938 -24.710938 55.609375 -25.140625 L 56.578125 -25.796875 L 63.671875 -2.734375 C 57.546875 0.703125 50.5625 2.421875 42.71875 2.421875 C 37.34375 2.421875 32.71875 1.484375 28.84375 -0.390625 C 24.976562 -2.273438 22.050781 -4.800781 20.0625 -7.96875 C 18.070312 -11.144531 16.644531 -14.476562 15.78125 -17.96875 C 14.925781 -21.46875 14.5 -25.203125 14.5 -29.171875 L 14.5 -60.921875 L 2.578125 -60.921875 L 2.578125 -82.6875 Z M 14.5 -82.6875 "/></g></g></g><g fill="#033b86" fill-opacity="1"><g transform="translate(47.274404, 451.741583)"><g><path d="M 45.53125 -94.015625 L 45.53125 0 L 11.015625 0 L 11.015625 -151.484375 L 45.53125 -151.484375 L 105.765625 -57.46875 L 106.140625 -57.46875 L 106.140625 -151.484375 L 140.65625 -151.484375 L 140.65625 0 L 106.140625 0 L 45.90625 -94.015625 Z M 45.53125 -94.015625 "/></g></g></g><g clip-path="url(#e56a7c9f34)"><g clip-path="url(#1674007e9f)"><path fill="#ffffff" d="M 53.132812 268.691406 L 108.542969 268.691406 L 108.542969 326.050781 L 53.132812 326.050781 Z M 53.132812 268.691406 " fill-opacity="1" fill-rule="nonzero"/></g></g></svg>